<?xml version="1.0" encoding="UTF-8"?>
<svg version="1.1" xmlns="http://www.w3.org/2000/svg" width="512" height="512">
<path d="M0 0 C5.50073544 4.59271088 10.62556071 9.46041109 15.70507812 14.51220703 C16.54651367 15.34546509 17.38794922 16.17872314 18.25488281 17.03723145 C21.01670366 19.77438981 23.77450403 22.51554342 26.53125 25.2578125 C27.48440543 26.20560085 28.43756607 27.15338397 29.39073181 28.10116196 C33.35124843 32.04011313 37.31035257 35.98047494 41.2657547 39.92456245 C46.92252896 45.56504059 52.58767805 51.19680342 58.26459932 56.81700623 C62.26577206 60.77955861 66.25738919 64.75157506 70.2419467 68.73083389 C72.61946646 71.10469617 75.00100872 73.4741703 77.39283752 75.83362198 C80.05036133 78.45976867 82.6919339 81.10098832 85.33007812 83.74658203 C86.1268396 84.52693817 86.92360107 85.30729431 87.74450684 86.11129761 C88.81269653 87.19196503 88.81269653 87.19196503 89.90246582 88.29446411 C90.52848946 88.9171776 91.15451309 89.53989109 91.79950714 90.18147469 C93 92 93 92 92.81005096 94.08267021 C91.61349072 96.91483844 89.73223318 98.83568151 87.6875 101.125 C69.43893652 122.37737394 57.16293978 147.95242148 48.54296875 174.43359375 C48.32116943 175.11486328 48.09937012 175.79613281 47.87084961 176.49804688 C47.29911437 178.28407311 46.75003518 180.07731 46.203125 181.87109375 C44.34118234 186.71335373 41.67921224 190.78281852 37.75 194.1875 C37.22921875 194.65542969 36.7084375 195.12335938 36.171875 195.60546875 C29.06061453 200.17151189 21.14733004 200.87393914 12.94140625 201.83203125 C11.66370865 201.98931198 10.38601105 202.14659271 9.06959534 202.30863953 C5.61649511 202.73354313 2.16205373 203.14637477 -1.29280853 203.55667114 C-4.88823536 203.98555052 -8.48238619 204.42486333 -12.07666016 204.86328125 C-17.18362767 205.48531987 -22.29101374 206.10370409 -27.39894485 206.71777916 C-35.86200946 207.73569286 -44.32054651 208.78658275 -52.77734375 209.85546875 C-56.09801271 210.27265073 -59.41875543 210.68923958 -62.73953247 211.1055603 C-64.81174902 211.36624375 -66.8837554 211.628604 -68.95553589 211.89273071 C-71.8212285 212.25720295 -74.6877901 212.61389731 -77.5546875 212.96875 C-78.78027626 213.12750862 -78.78027626 213.12750862 -80.03062439 213.28947449 C-95.28224118 215.14880987 -95.28224118 215.14880987 -102.125 212.5 C-102.87007812 212.2215625 -103.61515625 211.943125 -104.3828125 211.65625 C-104.91648438 211.4396875 -105.45015625 211.223125 -106 211 C-104.6770779 208.07697006 -103.24010622 205.98290974 -100.99053955 203.70292664 C-100.37381378 203.07333542 -99.75708801 202.4437442 -99.12167358 201.79507446 C-98.10866684 200.77635757 -98.10866684 200.77635757 -97.07519531 199.73706055 C-96.00656754 198.65112862 -96.00656754 198.65112862 -94.91635132 197.54325867 C-92.55936517 195.15197838 -90.19455073 192.76865605 -87.828125 190.38671875 C-86.61749516 189.16573455 -86.61749516 189.16573455 -85.38240814 187.920084 C-81.1148355 183.61669146 -76.8411617 179.31946587 -72.5625 175.02709961 C-68.13738444 170.58539419 -63.73361695 166.12313228 -59.33436966 161.65582561 C-55.95228192 158.22905965 -52.5547833 154.81789656 -49.15285492 151.41083717 C-47.52188133 149.77194849 -45.89680857 148.12716591 -44.27774811 146.47650719 C-42.01539429 144.17292218 -39.73215151 141.89225721 -37.44238281 139.6159668 C-36.77514191 138.92670105 -36.107901 138.2374353 -35.42044067 137.52728271 C-33.67350928 135.81515884 -32.07062494 134.30180075 -30 133 C-26.69061279 133.03938293 -26.69061279 133.03938293 -24 134 C-23.17757812 134.24878906 -22.35515625 134.49757813 -21.5078125 134.75390625 C-20.72148437 135.02074219 -19.93515625 135.28757812 -19.125 135.5625 C-10.00070585 138.32702494 -2.07043318 137.13785676 6.42578125 132.74609375 C13.84281612 128.17121678 19.0885923 122.06859318 21.52734375 113.61328125 C23.22604515 104.22128758 22.7149989 95.39460954 18 87 C16.71937515 85.2925002 15.40549561 83.60628069 14 82 C14 81.34 14 80.68 14 80 C13.18402344 79.59974609 13.18402344 79.59974609 12.3515625 79.19140625 C10.66285348 78.33583108 8.99273035 77.44319552 7.3359375 76.52734375 C-2.7093996 71.13360734 -10.05146402 69.779509 -21.10546875 72.9296875 C-30.1039684 76.25706794 -36.12050542 82.01675113 -40.25390625 90.60546875 C-44.668134 101.51030316 -43.30024737 110.15831001 -39.2800684 120.92876816 C-39 123 -39 123 -40.06387234 124.67911148 C-40.62524426 125.23587444 -41.18661619 125.79263741 -41.76499939 126.36627197 C-42.40310043 127.01124634 -43.04120148 127.6562207 -43.69863892 128.32073975 C-44.41289032 129.01701477 -45.12714172 129.71328979 -45.86303711 130.43066406 C-46.60416245 131.17251953 -47.34528778 131.914375 -48.10887146 132.67871094 C-50.57003285 135.13637925 -53.04845236 137.57585139 -55.52734375 140.015625 C-57.233797 141.71275637 -58.93915218 143.4109925 -60.64344788 145.11029053 C-65.13871433 149.58643851 -69.64879234 154.04737214 -74.16204834 158.50537109 C-78.76219992 163.05443573 -83.34828283 167.61763391 -87.93554688 172.1796875 C-96.94326392 181.13373115 -105.9662123 190.07226384 -115 199 C-115.99 198.67 -116.98 198.34 -118 198 C-121.7369658 188.95260911 -120.02782845 178.58191731 -118.85424805 169.11938477 C-118.73227051 168.09342194 -118.61029297 167.06745911 -118.48461914 166.01040649 C-118.0836116 162.65323816 -117.6730602 159.29732287 -117.26171875 155.94140625 C-116.97708812 153.58695178 -116.69281784 151.23245372 -116.40888977 148.87791443 C-115.81379855 143.95607544 -115.21387686 139.03485528 -114.6105957 134.11401367 C-113.84107771 127.83344566 -113.08435459 121.55141365 -112.33136272 115.26884556 C-111.74740718 110.40978188 -111.15624524 105.55161507 -110.56299782 100.6936779 C-110.28125486 98.37890231 -110.00179372 96.06384773 -109.72473717 93.74850655 C-105.67735026 60.01368933 -105.67735026 60.01368933 -98 53 C-91.92427486 48.24460917 -85.07021211 46.17034509 -77.77578735 43.92218018 C-48.50668035 34.83293796 -22.9774015 20.30561063 0 0 Z " fill="#288EFF" transform="translate(267,177)"/>
<path d="M0 0 C11.69199156 5.83690403 21.58391801 18.93789787 30.69921875 28.06640625 C32.3495298 29.71604237 33.99998917 31.36553013 35.65058899 33.01487732 C39.09396216 36.45678326 42.53553825 39.90047323 45.97583008 43.34545898 C50.37022536 47.74555995 54.76910773 52.14114337 59.1693449 56.53540134 C62.57276255 59.93519467 65.9737816 63.33737946 69.37409401 66.74027824 C70.99476696 68.36161482 72.6161735 69.98221846 74.23834801 71.60205269 C76.50858601 73.86973234 78.77556227 76.14062523 81.04174805 78.41235352 C81.70217606 79.07075729 82.36260406 79.72916107 83.04304504 80.40751648 C86.85927542 84.24093073 90.48671157 88.18439392 94.00420856 92.29420376 C97.13678728 95.84894778 100.65944556 99.01116531 104.109375 102.25390625 C108.15752427 106.8886504 110.19192293 111.73151025 109.9082489 118.04060364 C108.66483746 125.31191834 103.69623625 130.52447897 98.63671875 135.51953125 C97.97090286 136.18917404 97.30508698 136.85881683 96.61909485 137.54875183 C95.21785106 138.95270173 93.81160671 140.35167687 92.40063477 141.74584961 C90.25249185 143.87253304 88.12657881 146.01977221 86.00195312 148.16992188 C84.63148924 149.53774292 83.25978526 150.90432283 81.88671875 152.26953125 C81.25730881 152.90703812 80.62789886 153.54454498 79.97941589 154.20137024 C75.16531911 158.91550186 70.16732003 162.48668749 63.125 162.5 C62.44566406 162.51933594 61.76632812 162.53867187 61.06640625 162.55859375 C52.1767577 160.79730613 46.56437347 154.63647291 40.43041992 148.44799805 C39.43986922 147.46287621 38.44847151 146.47860542 37.45629883 145.49511719 C34.77992557 142.83688687 32.11624905 140.16627129 29.45530486 137.49260688 C26.66137457 134.68850481 23.85764679 131.89422579 21.05549622 129.0983429 C16.35375597 124.40386571 11.66048047 119.70104982 6.97192383 114.9934082 C1.5591167 109.55882231 -3.86796659 104.13881322 -9.30266458 98.72612542 C-13.97859334 94.06837376 -18.64665056 89.40284083 -23.30826873 84.73076659 C-26.08808416 81.94473058 -28.87049469 79.16143079 -31.66004372 76.38513756 C-34.28181865 73.77495457 -36.89354435 71.15510857 -39.49797821 68.52762604 C-40.90651633 67.11131496 -42.32486331 65.7047799 -43.74351501 64.29859924 C-49.4156925 58.55047356 -53.86088594 53.60755071 -53.875 45.125 C-53.89433594 44.35285156 -53.91367187 43.58070313 -53.93359375 42.78515625 C-52.59389833 35.43265461 -48.16543395 30.18791182 -42.984375 25.078125 C-42.36532288 24.45524597 -41.74627075 23.83236694 -41.10845947 23.19061279 C-39.80556776 21.88501637 -38.49768017 20.58438803 -37.18505859 19.28857422 C-35.19275072 17.31769425 -33.22270395 15.32636587 -31.25390625 13.33203125 C-29.97784293 12.05861146 -28.70053918 10.7864332 -27.421875 9.515625 C-26.8413739 8.92702698 -26.2608728 8.33842896 -25.66278076 7.73199463 C-18.01329628 0.25258925 -10.51126315 -2.86670813 0 0 Z " fill="#3C75FF" transform="translate(323.4375,105.9375)"/>
<path d="M0 0 C3.54587304 2.67789827 6.58102534 5.8135226 9.68310547 8.98608398 C10.63688768 9.93992162 11.59198643 10.89244434 12.54829407 11.84375 C15.13387425 14.42334946 17.70049934 17.02108376 20.26394796 19.62265277 C22.95024166 22.34279482 25.65319552 25.04628196 28.35427856 27.75172424 C32.88478679 32.29418051 37.40422327 36.847404 41.91601562 41.40844727 C48.28351918 47.84541193 54.6710369 54.26222645 61.06252837 60.67536056 C66.02221019 65.65332964 70.97630417 70.63685847 75.9296875 75.62109375 C76.4617523 76.15632998 76.99381709 76.69156621 77.54200506 77.24302173 C80.59598073 80.31579473 83.64714843 83.39130617 86.69400597 86.471138 C88.06026322 87.85118982 89.428899 89.22888561 90.79759216 90.60652161 C91.60502365 91.42399872 92.41245514 92.24147583 93.24435425 93.08372498 C94.302301 94.1519784 94.302301 94.1519784 95.38162041 95.24181271 C98.05179835 98.14266054 98.61222949 100.76789801 98.54541016 104.72583008 C97.37585057 109.60248521 93.20603361 112.75000058 89.6875 116.09375 C88.84405029 116.92588013 88.00060059 117.75801025 87.1315918 118.61535645 C84.43928163 121.26296495 81.72048311 123.88137885 79 126.5 C77.16745266 128.29241384 75.33670053 130.08666504 73.5078125 131.8828125 C69.0258036 136.27672345 64.52173312 140.64699969 60 145 C58.87389188 144.03878393 57.74834902 143.07690561 56.62304688 142.11474609 C55.99619995 141.57917084 55.36935303 141.04359558 54.72351074 140.49179077 C50.38139408 136.73345646 46.47152326 132.59179678 42.73606873 128.23634338 C39.21491426 124.1953021 35.51785335 120.37637126 31.72290039 116.59350586 C31.03247147 115.90132462 30.34204254 115.20914337 29.63069153 114.49598694 C27.37216978 112.23310269 25.11005565 109.97385068 22.84765625 107.71484375 C21.26242225 106.1289351 19.67733663 104.54287811 18.09239197 102.9566803 C14.77976965 99.64258859 11.46535814 96.33029961 8.1496582 93.01928711 C3.91541242 88.79073812 -0.31432757 84.55771506 -4.54273129 80.32332516 C-7.81213677 77.05029355 -11.08393586 73.77966297 -14.35644722 70.50973701 C-15.91637987 68.95046796 -17.47557968 67.39046538 -19.03400993 65.82969475 C-21.21808729 63.64305709 -23.40538049 61.45968554 -25.59350586 59.27709961 C-26.22699951 58.64158173 -26.86049316 58.00606384 -27.51318359 57.35128784 C-31.27077085 53.61116511 -35.14236697 50.0609077 -39.16858768 46.61110783 C-41.91150151 44.19814495 -44.44948889 41.61427389 -47 39 C-45.63220496 35.93891452 -44.07796436 33.82557425 -41.71533203 31.45654297 C-41.04768829 30.78259491 -40.38004456 30.10864685 -39.69216919 29.41427612 C-38.97133148 28.69748688 -38.25049377 27.98069763 -37.5078125 27.2421875 C-36.76546356 26.49792511 -36.02311462 25.75366272 -35.25827026 24.98684692 C-33.68879958 23.41601641 -32.11680499 21.84770413 -30.54248047 20.28173828 C-28.1340705 17.88403019 -25.73650063 15.4758558 -23.33984375 13.06640625 C-21.81314086 11.54102499 -20.28581766 10.01626426 -18.7578125 8.4921875 C-18.04102325 7.77134979 -17.32423401 7.05051208 -16.58572388 6.30783081 C-15.91177582 5.64018707 -15.23782776 4.97254333 -14.54345703 4.28466797 C-13.95436554 3.69716766 -13.36527405 3.10966736 -12.7583313 2.50436401 C-8.73315411 -0.93943052 -5.06871544 -2.11925622 0 0 Z " fill="#4768FF" transform="translate(382,58)"/>
<path d="M0 0 C1.93101814 -0.00786278 1.93101814 -0.00786278 3.90104675 -0.0158844 C6.60820422 -0.02476076 9.31506572 -0.02245114 12.0222168 -0.01245117 C15.48696471 -0.00089724 18.95070306 -0.02129645 22.41531849 -0.05036831 C25.73526656 -0.07311873 29.05497581 -0.06626699 32.375 -0.0625 C34.23751152 -0.07935097 34.23751152 -0.07935097 36.13764954 -0.09654236 C37.28952255 -0.08716141 38.44139557 -0.07778046 39.62817383 -0.06811523 C41.14632439 -0.06786598 41.14632439 -0.06786598 42.69514465 -0.06761169 C46.06026356 0.5663772 47.24419204 1.79502189 49.35546875 4.43359375 C49.88671875 6.43359375 49.88671875 6.43359375 49.85546875 8.43359375 C49.8709375 9.42359375 49.8709375 9.42359375 49.88671875 10.43359375 C49.11355427 13.3443306 47.65254523 14.52661192 45.35546875 16.43359375 C42.88496399 16.93238831 42.88496399 16.93238831 40.0871582 16.93188477 C38.50950432 16.9469381 38.50950432 16.9469381 36.89997864 16.96229553 C35.76767319 16.95411301 34.63536774 16.94593048 33.46875 16.9375 C32.29716843 16.94692123 31.12558685 16.95634247 29.91850281 16.96604919 C26.16814787 16.99475212 22.41842473 16.99777654 18.66796875 16.99609375 C14.93545723 16.99970796 11.20340873 17.00934615 7.47099304 17.03684998 C5.1492848 17.05355577 2.82742491 17.05657965 0.50569153 17.0438385 C-7.23499612 17.09375015 -13.67268541 18.08659393 -20.39453125 22.05859375 C-25.22253865 27.15482379 -28.35679753 33.03039705 -28.77734375 40.10546875 C-28.35819054 47.45297796 -25.94547414 53.37360281 -20.64453125 58.43359375 C-14.9739865 62.39660368 -10.31940968 63.55861733 -3.49720097 63.55829239 C-2.22784767 63.56068334 -0.95849438 63.56307429 0.34932417 63.56553769 C1.76079124 63.56315918 3.17225817 63.56069918 4.58372498 63.5581665 C6.08091662 63.55915259 7.57810802 63.56058959 9.07529885 63.56243968 C12.3342972 63.56550145 15.59327515 63.56538906 18.85227394 63.56288338 C24.15447148 63.55882709 29.45665302 63.56159102 34.7588501 63.56523132 C41.45814155 63.56932319 48.15742942 63.57156099 54.85672212 63.57164732 C68.01753988 63.57184991 81.17832074 63.58430143 94.33912659 63.60125732 C96.4100866 63.60386312 98.48104663 63.60646193 100.55200666 63.60905385 C103.69063712 63.61299228 106.82926756 63.61693879 109.96789796 63.62091507 C121.80289732 63.63586351 133.63789781 63.64948744 145.47290039 63.66162109 C146.55491999 63.66273465 147.6369396 63.66384822 148.75174768 63.66499552 C166.29504032 63.68257939 183.83830992 63.68543902 201.38160991 63.68377069 C219.38402792 63.6824927 237.38635993 63.70019972 255.38874489 63.73478866 C266.49820998 63.75546629 277.60746933 63.76075526 288.71694542 63.74646035 C296.32657797 63.73801616 303.9360502 63.74769364 311.54564887 63.77176985 C315.93922808 63.78510755 320.332423 63.79021449 324.72599983 63.77364922 C328.74610045 63.75865924 332.76547531 63.76654019 336.78551198 63.79281875 C338.24172376 63.79825488 339.69799648 63.79519552 341.15416651 63.78290179 C343.13016403 63.76744068 345.10633972 63.78561201 347.08229733 63.80553055 C348.18093827 63.80612764 349.27957922 63.80672472 350.41151232 63.80733991 C354.3563053 64.64649695 355.87076022 66.32243451 358.35546875 69.43359375 C358.91796875 72.99609375 358.91796875 72.99609375 358.35546875 76.43359375 C356.4883837 78.79856814 355.03485444 80.0939009 352.35546875 81.43359375 C350.41152381 81.53025331 348.46419227 81.56096673 346.51784611 81.5622282 C345.26662529 81.56545265 344.01540447 81.5686771 342.72626787 81.57199925 C341.32484112 81.57052787 339.92341447 81.56896013 338.52198792 81.56730652 C337.0431727 81.5691732 335.56435798 81.57147332 334.08554405 81.57417184 C330.00672733 81.58031452 325.92793102 81.58015335 321.84911072 81.57897747 C317.4555715 81.57877407 313.06203895 81.58428656 308.66850281 81.58903503 C300.05303679 81.59735687 291.43757762 81.60009061 282.82210792 81.60064741 C275.81757614 81.60112208 268.81304662 81.60317435 261.80851555 81.60634804 C241.95454276 81.61516066 222.10057539 81.61976674 202.24660064 81.61901756 C201.17530299 81.61897761 200.10400535 81.61893765 199.00024414 81.61889648 C197.92763924 81.6188556 196.85503434 81.61881472 195.74992626 81.6187726 C178.38191871 81.6183665 161.01393288 81.62792551 143.64593161 81.64203485 C125.81760798 81.65640387 107.98929494 81.66330467 90.16096538 81.66244107 C80.14993463 81.66210917 70.13892661 81.66485309 60.12790108 81.67561913 C51.59986819 81.68473128 43.07186832 81.68689368 34.54383267 81.6801097 C30.19418558 81.67684743 25.84460183 81.67677712 21.49496078 81.68546295 C17.5079985 81.69334238 13.52114962 81.69188179 9.53419005 81.68317882 C8.09664725 81.68164694 6.65909592 81.68344815 5.22156317 81.6890389 C-10.04635703 81.74445426 -23.25285129 80.22551691 -34.828125 69.4453125 C-38.11683343 65.8029795 -40.45979198 61.80987833 -42.64453125 57.43359375 C-42.98613281 56.75941406 -43.32773437 56.08523438 -43.6796875 55.390625 C-47.46584621 46.28623406 -47.1273732 34.15645592 -43.70703125 24.99609375 C-38.58247977 14.47271901 -29.79663092 6.05427021 -18.83911133 1.88232422 C-12.62823838 -0.14672792 -6.47937093 -0.0154448 0 0 Z " fill="#1F99FF" transform="translate(77.64453125,373.56640625)"/>
<path d="M0 0 C4.55345897 3.89004111 7.07235119 8.02181879 8 14 C8.07893019 20.33696689 6.71740336 24.87601158 3 30 C-3.15933557 34.77662759 -8.37637779 35.81318637 -16 35 C-21.3222132 33.3317083 -24.9815207 30.75990966 -28 26 C-30.46571247 20.6561286 -30.7887383 15.80576436 -30 10 C-27.81257673 4.34837422 -24.35986383 0.8509914 -19 -2 C-12.73036353 -4.42695605 -5.71464875 -3.28041703 0 0 Z " fill="#2A8CFF" transform="translate(268,265)"/>
</svg>
